{"title":"Austin Powers - The Spy Who Shagged Me (1999) DVDRip XviD AC3 pe","uid":8806735,"size":734455808,"categoryP":"video","categoryS":"movies","magnet":"?xt=urn:btih:0c9ffcfc89f99c99aea820fdb947e398391eab6a&amp;dn=Austin+Powers+-+The+Spy+Who+Shagged+Me+%281999%29+DVDRip+XviD+AC3+pe&amp;tr=udp%3A%2F%2Ftracker.openbittorrent.com%3A80&amp;tr=udp%3A%2F%2Fopen.demonii.com%3A1337&amp;tr=udp%3A%2F%2Ftracker.coppersurfer.tk%3A6969&amp;tr=udp%3A%2F%2Fexodus.desync.com%3A6969","seeders":5,"leechers":1,"uploader":"peaSoup","files":-1,"time":1376351732,"description":"Storyline\n\nDr. Evil uses a device he calls a &quot;Time Machine&quot; to travel back to 1969 and remove Austin Powers' mojo. The sexually wounded swinger must travel back in time and, with the help of agent Felicity Shagwell, recover his vitality. Meanwhile, Dr. Evil's personal life runs amok as he discovers love, continues to shun his son and develops a close relationship with himself. Well, actually, a clone 1/8 his size whom he dubs &quot;Mini-Me&quot;. The always time-baffled Dr. Evil begins his plan to put a gigantic cannon on the moon, thus turning it into a device called either &quot;The Death Star&quot; or &quot;Alan Parson's Project,&quot; depending on which name is available.                            &lt;a href=&quot; http://imageshack.us/a/img838/402/w9yu.jpg&quot; rel=&quot;nofollow&quot; target=&quot;_NEW&quot;&gt; http://imageshack.us/a/img838/402/w9yu.jpg&lt;/a&gt;                                          &lt;a href=&quot; http://imageshack.us/a/img607/9472/bn8h.jpg&quot; rel=&quot;nofollow&quot; target=&quot;_NEW&quot;&gt; http://imageshack.us/a/img607/9472/bn8h.jpg&lt;/a&gt;                                         &lt;a href=&quot; http://imageshack.us/a/img19/4769/3m91.jpg&quot; rel=&quot;nofollow&quot; target=&quot;_NEW&quot;&gt; http://imageshack.us/a/img19/4769/3m91.jpg&lt;/a&gt;                                          &lt;a href=&quot; http://imageshack.us/a/img825/6636/b7vy.jpg&quot; rel=&quot;nofollow&quot; target=&quot;_NEW&quot;&gt; http://imageshack.us/a/img825/6636/b7vy.jpg&lt;/a&gt;                                         &lt;a href=&quot; http://imageshack.us/a/img801/4870/k28e.jpg&quot; rel=&quot;nofollow&quot; target=&quot;_NEW&quot;&gt; http://imageshack.us/a/img801/4870/k28e.jpg&lt;/a&gt;                                          Format                                   : AVI\nFormat/Info                              : Audio Video Interleave\nFile size                                : 700 MiB\nDuration                                 : 1h 31mn\nOverall bit rate                         : 1 075 Kbps\nWriting application                      : VirtualDubMod 1.5.4.1 (build 2178/release)\nWriting library                          : VirtualDubMod build 2178/release\n\nVideo\nID                                       : 0\nFormat                                   : MPEG-4 Visual\nFormat profile                           : Advanced Simple@L5\nFormat settings, BVOP                    : 1\nFormat settings, QPel                    : No\nFormat settings, GMC                     : No warppoints\nFormat settings, Matrix                  : Custom\nCodec ID                                 : XVID\nCodec ID/Hint                            : XviD\nDuration                                 : 1h 31mn\nBit rate                                 : 620 Kbps\nWidth                                    : 560 pixels\nHeight                                   : 240 pixels\nDisplay aspect ratio                     : 2.35:1\nFrame rate                               : 25.000 fps\nColor space                              : YUV\nChroma subsampling                       : 4:2:0\nBit depth                                : 8 bits\nScan type                                : Progressive\nCompression mode                         : Lossy\nBits/(Pixel*Frame)                       : 0.184\nStream size                              : 404 MiB (58%)\nWriting library                          : XviD 1.2.1 (UTC 2008-12-04)\n\nAudio\nID                                       : 1\nFormat                                   : AC-3\nFormat/Info                              : Audio Coding 3\nMode extension                           : CM (complete main)\nFormat settings, Endianness              : Big\nCodec ID                                 : 2000\nDuration                                 : 1h 31mn\nBit rate mode                            : Constant\nBit rate                                 : 448 Kbps\nChannel(s)                               : 6 channels\nChannel positions                        : Front: L C R, Side: L R, LFE\nSampling rate                            : 48.0 KHz\nBit depth                                : 16 bits\nCompression mode                         : Lossy\nStream size                              : 292 MiB (42%)\nAlignment                                : Split accross interleaves\nInterleave, duration                     : 96 ms (2.40 video frames)\nInterleave, preload duration             : 96 ms\nLanguage                                 : English\n\n","torrent":{"xt":"urn:btih:0c9ffcfc89f99c99aea820fdb947e398391eab6a","amp;dn":"Austin+Powers+-+The+Spy+Who+Shagged+Me+%281999%29+DVDRip+XviD+AC3+pe","amp;tr":["udp%3A%2F%2Ftracker.openbittorrent.com%3A80","udp%3A%2F%2Fopen.demonii.com%3A1337","udp%3A%2F%2Ftracker.coppersurfer.tk%3A6969","udp%3A%2F%2Fexodus.desync.com%3A6969"],"infoHash":"0c9ffcfc89f99c99aea820fdb947e398391eab6a","infoHashBuffer":{"type":"Buffer","data":[12,159,252,252,137,249,156,153,174,168,32,253,185,71,227,152,57,30,171,106]},"announce":[],"urlList":[]}}